<svg width="115" height="113" viewBox="0 0 115 113" fill="none" xmlns="http://www.w3.org/2000/svg">
<path d="M52.2266 5.87598C51.2797 4.37403 49.2539 3.95396 47.7822 4.98828L39.6611 10.6973L30.9893 5.1084C29.0161 3.83658 26.4281 5.11123 26.1836 7.39355L26.167 7.61816L24.8682 41.5078L7.55469 41.4912L7.3584 41.4971C5.35316 41.6172 3.9584 43.5954 4.56348 45.5469L9.85352 62.6045L7.41016 76.7764C7.08222 78.6782 8.537 80.4202 10.4668 80.4365L32.5078 80.6201L37.2168 105.053C37.5752 106.911 39.4895 108.028 41.2842 107.427L56.4961 102.327L71.3691 105.141C73.2971 105.505 75.081 104.026 75.0791 102.063L75.0645 86.1221L107.942 78.4814C110.163 77.9655 111.103 75.3252 109.71 73.5215V73.5205L103.258 65.1689L109.64 57.584C111.046 55.9124 110.35 53.3501 108.291 52.6201L87.8711 45.3799L94.875 15.4727C95.4262 13.1181 93.2224 11.0873 90.957 11.7539L90.7373 11.8271L61.5898 22.6719L52.3145 6.02539L52.2266 5.87598Z" fill="#FF8600" stroke="#12266F" stroke-width="5"/>
<path fill-rule="evenodd" clip-rule="evenodd" d="M56.1737 3.8749C53.9937 -0.037756 48.9055 -1.20168 45.2413 1.37413L39.5535 5.37252L33.3824 1.39478C28.4694 -1.77197 21.9767 1.60793 21.7527 7.44866L20.6162 37.0861L7.55899 37.0737C2.47153 37.0689 -1.16308 41.9966 0.343909 46.8557L5.31973 62.8998L3.05642 76.0256C2.26543 80.6129 5.77547 84.8154 10.4303 84.8543L28.8539 85.008L32.8795 105.889C33.7437 110.372 38.3594 113.066 42.688 111.615L56.8068 106.883L70.5478 109.482C75.1983 110.361 79.5013 106.792 79.4968 102.059L79.4849 89.6301L108.942 82.7847C114.298 81.5402 116.567 75.1706 113.206 70.82L108.932 65.2877L113.021 60.4276C116.413 56.3958 114.734 50.217 109.768 48.4564L93.0734 42.5379L99.1764 16.4805C100.55 10.6176 94.8404 5.58685 89.197 7.68667L63.6032 17.2096L56.1737 3.8749ZM47.4113 4.46102C49.2434 3.17312 51.7875 3.75508 52.8775 5.71141L61.8834 21.8755L90.5128 11.2231C93.3345 10.1732 96.1891 12.6886 95.5025 15.62L88.6293 44.9657L108.507 52.0128C110.99 52.8931 111.829 55.9825 110.133 57.9984L104.085 65.1868L110.22 73.127C111.901 75.3023 110.766 78.4871 108.088 79.1093L75.7088 86.6337L75.7235 102.063C75.7257 104.429 73.5743 106.214 71.249 105.774L56.5409 102.993L41.4888 108.038C39.3245 108.763 37.0167 107.416 36.5846 105.174L31.9742 81.2607L10.4618 81.0811C8.13438 81.0617 6.37935 78.9604 6.77485 76.6668L9.19217 62.6478L3.94785 45.738C3.19437 43.3085 5.01167 40.8446 7.5554 40.847L24.2474 40.8629L25.5233 7.59326C25.6352 4.67288 28.8816 2.98294 31.3381 4.56631L39.6448 9.92063L47.4113 4.46102ZM51.7788 6.32357C51.0521 5.01937 49.356 4.63138 48.1346 5.48999L39.6753 11.4367L30.6566 5.62349C29.019 4.56791 26.8547 5.69453 26.7801 7.64145L25.4578 42.1218L7.55419 42.1048C5.85838 42.1032 4.64684 43.7457 5.14917 45.3654L10.483 62.5638L8.01431 76.8805C7.75065 78.4096 8.92066 79.8104 10.4723 79.8234L14.8219 79.8597L14.8227 79.8597L14.8292 79.8598L14.83 79.8598L33.0144 80.0115L37.8196 104.936C38.1077 106.431 39.6462 107.329 41.0891 106.845L56.4522 101.696L67.1952 103.727L67.1973 103.728L67.1995 103.728L67.2015 103.729L71.4827 104.538C73.0329 104.831 74.4672 103.642 74.4657 102.064L74.4501 85.635L107.804 77.8842C109.589 77.4694 110.345 75.3462 109.225 73.896L102.47 65.1532L109.171 57.1887C110.302 55.8447 109.742 53.7852 108.086 53.1983L87.148 45.775L94.2779 15.3332C94.7356 13.3789 92.8326 11.702 90.9514 12.4019L61.3102 23.4308L51.7788 6.32357ZM86.8913 46.8711C86.8914 46.8704 86.8916 46.8696 86.8918 46.8688L86.8913 46.8711ZM56.1298 101.635C56.1303 101.635 56.1308 101.635 56.1313 101.635L56.1298 101.635ZM33.7996 76.2447L14.8687 76.0867L14.8679 76.0867L14.8614 76.0866L14.8607 76.0866L11.9843 76.0626L14.2527 62.9072C14.3202 62.5158 14.2941 62.114 14.1764 61.7346L9.25925 45.8797L26.6659 45.8963C28.0186 45.8976 29.1301 44.8289 29.182 43.4771L30.4661 9.98991L38.3428 15.0671C39.2035 15.6218 40.3146 15.5995 41.1524 15.0106L49.1622 9.37995L58.5394 26.2104C59.144 27.2955 60.45 27.7769 61.6141 27.3437L90.0692 16.7562L83.2174 46.0107C82.9251 47.2587 83.618 48.5269 84.8261 48.9552L105.115 56.1482L98.9297 63.5001C98.1676 64.406 98.1402 65.7207 98.864 66.6576L105.041 74.6523L72.622 82.1859C71.4815 82.451 70.6747 83.4677 70.6758 84.6386L70.691 100.548L67.9047 100.021L67.9027 100.021L67.9005 100.021L67.8984 100.02L56.831 97.9271C56.4082 97.8472 55.972 97.877 55.5641 98.0137L41.2526 102.811L36.6166 78.7639L37.6989 77.6816L58.3881 89.3024C59.2965 89.8127 60.4466 89.4899 60.9569 88.5814C61.4672 87.6729 61.1444 86.5228 60.2359 86.0125L40.4701 74.9103L44.6571 70.7233L62.2207 78.2999C63.1774 78.7127 64.2876 78.2716 64.7003 77.3149C65.113 76.3581 64.672 75.248 63.7153 74.8353L47.5281 67.8524L54.4664 60.9141L65.2019 63.5328C66.2142 63.7797 67.235 63.1593 67.482 62.147C67.7289 61.1347 67.1084 60.1139 66.0962 59.867L57.5887 57.7918L63.138 52.2424C63.8748 51.5057 63.8748 50.3111 63.138 49.5743C62.4012 48.8375 61.2067 48.8375 60.4699 49.5743L55.203 54.8412L54.1103 47.4107C53.9587 46.3799 53.0001 45.6671 51.9692 45.8187C50.9384 45.9703 50.2256 46.9288 50.3772 47.9597L51.8781 58.1661L45.1138 64.9304L39.18 45.5487C38.875 44.5524 37.82 43.9919 36.8237 44.297C35.8274 44.602 35.267 45.6569 35.572 46.6533L42.0926 67.9516L37.8266 72.2176L26.9683 52.2673C26.4702 51.3521 25.3245 51.014 24.4093 51.5121C23.4941 52.0102 23.156 53.1559 23.6541 54.0711L35.0447 74.9995L33.7996 76.2447ZM106.95 74.2088C106.948 74.2091 106.947 74.2093 106.946 74.2096L106.95 74.2088ZM8.75312 44.2477L8.75369 44.2496L8.75312 44.2477Z" fill="#12266F"/>
</svg>
